<?xml version="1.0" encoding="UTF-8"?>
<!-- Created with Inkscape (http://www.inkscape.org/) -->
<svg width="81.49mm" height="103.8mm" version="1.1" viewBox="0 0 81.49 103.8" xmlns="http://www.w3.org/2000/svg"><g transform="translate(-109.4 -167.3)"><g transform="matrix(1.86 0 0 1.86 -87.74 -215.1)" stroke-width=".5377"><g transform="translate(68.99 19)"><g transform="matrix(.2572 0 0 .2573 40.12 186.5)" fill="#e8c86e" stroke-width=".5531"><path d="m33.07 0.5246c1.5 2e-5 3.978 1.533 7.449 8.475 4 8 12.54 46.19 14.5 56 1 5 7-10.5 14.5-20s16-19.5 18.5-19.5c2 0 3.5-0.2135 5 1.287 1.5 3 2.161 8.308 2.5 12.71 0.5 6.5 0.5 11.75 0.5 20 0 9-1.667 19-2 23 2.333-0.5 6.332-2.624 9.5-5 4-3 11.5-7 14-5 2 1.6 0.333 9.333-0.5 13.5-2.667 6.667-9.5 21.3-15.5 26.5s-10 10-13 12c-1.5 0-2.1 0-2.5-2-0.5-2.5 1.5-8.5 1.5-11 0-2.915-2.5-8-6.5-8s-8.424 3.856-13 5c-2 0.5-3-2-3.5-3.5-1.5-3-1.5-4-3-6.5-2.009-3.349-4.5-5.5-8.5-3.5-3.2 1.6-5.333 6.333-6 8.5l-3 9.5c-3.167-2.167-9.8-5.5-13-3.5s-2.5 4.833-2 6.5c0.1666 1.5-0.2 4.5-3 4.5s-6.5-5-8.5-7.5c-3-4-9.3-12-12.5-22s-4.15-19.9-3.983-23.9c0.2173-0.7342 0.7963-2.422 3.196-2.422 2.4 0 10.29 6.987 13.79 10.32-0.5-10 0.3-32.3 1.5-39.5 1.667-10 7-30 9.5-32.5 1.071-1.071 2.469-2.597 4.051-2.475z"/><path d="m72.68 140.4c2.8-5.2 8.5-16 9-23.5 0-1.833 0.5-7.5-2-7.5s-2.5 0.5-4 1.5c-0.8321 0.555-5 5-8 5-2.4 0-4-3.5-5.5-5.5-2-2.667-3.4-8-5-10s-3.333-0.833-4 0c-1.6 2-2.562 7.5-3 11-0.5625 4.5-1.5 8.333-3.5 9-2.5 0.833-4.735-1.368-6-2-2-1-3.5-3-5.5-2.5-1 4.5-0.6 8.7 1 15.5s7 16.64 11.5 20.5c2.333 2 7.669 4.742 12.07 3.142 5.5-2 9.431-8.142 12.93-14.64z"/></g><g transform="matrix(.2572 0 0 .2573 40.12 186.5)" fill="#d57d6a" stroke-width=".5531"><path d="m52.09 143.4c-10.91-10.5-10.41-19.5-14.91-26.5-0.5964-0.928-2.04-1.744-2.262-0.7436-0.9999 4.5 0.06243 10.74 1.662 16.74 1.6 6 4.737 12 8.237 16.5 1.955 2.513 5.516 6.356 11.07 6.356 5.556 0 7.192-1.856 8.692-3.856-1.833-1.5-8.396-4.557-12.49-8.5z"/><path d="m11.46 87c2.8 8 12.33 21.33 17 26.5 1.056 3.5 0.5556 6.6-1.444 7-2.5 0.5-4-1-7-4.5-2.209-2.577-9.157-11.93-12.16-17.93-1.04-2.08-2.146-4.803-3.04-7.72-1.805-5.885-3.061-12.5-3.359-15.85-0.1344-1.512-0.3094-2.823-0.3705-3.892-0.1409-2.466-0.04017-3.72-0.04017-3.72s0.2245-0.7542 0.7654-1.314c0.6434-0.6653 1.658-1.118 2.201-0.5745 0.7679 3.243 4.644 14 7.444 22z"/><path d="m33.96 72c0-4.031-1.278-45.83-0.9444-67.5v-4c-1.652 0.02554-3.047 1.292-4.139 2.624-1.412 1.401-6.827 16.49-8.353 24.73-2.827 13.39-2.812 42.64-2.414 46.87 0.6223 6.617 11.6 9.338 13.1 8.838s2.744-6.556 2.744-11.56z"/><path d="m59.46 80c-4-0.5-4.013-13.98-4.013-13.98 1.5-2 5.569-9.027 9.069-14.52 4.136-6.5 17-22 20-24.5 3.5-2.917 6.5-1.5 7.5-1 0.3333 1.167-0.8499 5.225-2.056 8.5-1.274 3.461-9.5 22.5-15.5 31-3.667 4.667-11.8 14.9-15 14.5z"/><path d="m56.1 115.5c0.4-2-2.109-10.82-3.443-14.32-2 4.5-1.758 5.254-2.502 10.82-0.135 1.011-1.356 6-1.356 6s6.8 0 7.3-2.5z"/><path d="m88.96 99.5c8.8 1.2 8.722 12 7.556 17.5-2.444 2.5-2.5 2.5-7 7-0.5 0.5-1 1-2.5 0.335-1.5-0.835-2-4.668-1-6.335 1.5-2.5 2.5-9-1-12.5-3.864-3.864-9.866 0.072-12 1-1.944 0.845-3.658 2.053-5 2.5s-2.056-0.2-4.056-5c-2.292-5.5-5.889-10.5-9.444-9.5 0 0 2.444-3.5 9.444-2.5 5.6 0.8 8.722 9.167 9.556 13.5 1.5-2.667 6.644-7.2 15.44-6z"/></g><g transform="matrix(.2572 0 0 .2573 40.12 186.5)" stroke-width=".2365"><path d="m145 126.5c0-14.8-11.5-19-19.5-19-6 0-19.5 3.8-19.5 19s12.83 19 19.5 19c6.5-0.167 19.5-4.2 19.5-19z" fill="#0b96a7" stroke="#0b96a7"/><path d="m108.5 117c3.872-7.55 12.58-9.618 17.5-9.5-14.74 8.299-11.1 29.1-8.027 36.49 0 0-19.47-7.491-9.473-26.99z" fill="#0f8594" stroke="#0f8594"/></g></g></g><g transform="translate(31.43 44.56)"><g transform="translate(22.3 89.31)"><g transform="translate(16.48 -54.3)"><g transform="translate(-54.37 29.99)" font-family="Nunito" font-size="12.7px" font-weight="500" stroke-width="3.039"><text x="96.641701" y="147.78915" fill="#d57d6a" stop-color="#000000" style="line-height:0.9;paint-order:fill markers stroke" xml:space="preserve"><tspan x="0" y="0"><tspan x="96.641701" y="147.78915" font-weight="900"/><tspan x="96.641701" y="159.57512" font-size="11.29px" font-weight="normal"/></tspan><tspan x="0" y="0"><tspan x="96.641701" y="159.57512" dy="1.4" font-size="11.29px" font-weight="normal"/></tspan></text><text x="93.601494" y="147.30203" fill="#0b96a7" stop-color="#000000" style="line-height:0.9;paint-order:fill markers stroke" xml:space="preserve"><tspan x="93.601494" y="147.30203" dy="1.4" font-weight="900">ЗВЁЗДОЧКА</tspan><tspan x="93.601494" y="159.088" dy="1.4" font-size="11.29px" font-weight="normal"/><tspan x="93.601494" y="170.57932" font-size="11.29px" font-weight="normal"/></text><text x="134.35216" y="149.27728" fill="#ff8080" fill-rule="evenodd" font-family="Nunito" font-size="11.29px" stop-color="#000000" stroke-width="3.039" text-align="center" text-anchor="middle" style="line-height:0.9;paint-order:fill markers stroke" xml:space="preserve"><tspan x="134.35216" y="149.27728" text-align="center"/><tspan x="134.35216" y="159.43729" text-align="center">детский лагерь</tspan></text><text x="152.98337" y="135.74515" fill="#ff8080" fill-rule="evenodd" font-family="Nunito" font-size="7.761px" stop-color="#000000" stroke-width="3.039" text-align="center" text-anchor="middle" style="line-height:0.9;paint-order:fill markers stroke" xml:space="preserve"><tspan x="152.98337" y="135.74515" font-size="7.761px" stroke-width="3.039">загородный</tspan></text></g></g></g></g></g></svg>
